<svg width="1611" height="927" viewBox="0 0 1611 927" fill="none" xmlns="http://www.w3.org/2000/svg">
<g clip-path="url(#clip0_50_2)">
<g opacity="0.05">
<path d="M8.00012 191.6C43.3065 248.819 167.479 484.6 404.806 385.6C1173.28 65.0341 1341.57 519.475 1610.9 517.6" stroke="#ED3237"/>
<path d="M8 175.6C43.3064 232.819 167.479 468.6 404.806 369.6C1173.28 49.0341 1341.57 503.475 1610.9 501.6" stroke="#ED3237"/>
<path d="M8 159.6C43.3064 216.819 167.479 452.6 404.806 353.6C1173.28 33.0341 1341.57 487.475 1610.9 485.6" stroke="#ED3237"/>
<path d="M8 143.6C43.3064 200.819 167.479 436.6 404.806 337.6C1173.28 17.0342 1341.57 471.475 1610.9 469.6" stroke="#ED3237"/>
<path d="M8 127.6C43.3064 184.819 167.479 420.6 404.806 321.6C1173.28 1.03421 1341.57 455.475 1610.9 453.6" stroke="#ED3237"/>
<path d="M8 111.6C43.3064 168.819 167.479 404.6 404.806 305.6C1173.28 -14.9658 1341.57 439.475 1610.9 437.6" stroke="#ED3237"/>
<path d="M8 95.6001C43.3064 152.819 167.479 388.6 404.806 289.6C1173.28 -30.9658 1341.57 423.475 1610.9 421.6" stroke="#ED3237"/>
<path d="M8 79.6001C43.3064 136.819 167.479 372.6 404.806 273.6C1173.28 -46.9658 1341.57 407.475 1610.9 405.6" stroke="#ED3237"/>
<path d="M8 63.6001C43.3064 120.819 167.479 356.6 404.806 257.6C1173.28 -62.9658 1341.57 391.475 1610.9 389.6" stroke="#ED3237"/>
<path d="M8 47.6001C43.3064 104.819 167.479 340.6 404.806 241.6C1173.28 -78.9658 1341.57 375.475 1610.9 373.6" stroke="#ED3237"/>
<path d="M8 31.6001C43.3064 88.8191 167.479 324.6 404.806 225.6C1173.28 -94.9658 1341.57 359.475 1610.9 357.6" stroke="#ED3237"/>
<path d="M8 15.6001C43.3064 72.8191 167.479 308.6 404.806 209.6C1173.28 -110.966 1341.57 343.475 1610.9 341.6" stroke="#ED3237"/>
<path d="M8 -0.399902C43.3064 56.8191 167.479 292.6 404.806 193.6C1173.28 -126.966 1341.57 327.475 1610.9 325.6" stroke="#ED3237"/>
<path d="M8 -16.3999C43.3064 40.8191 167.479 276.6 404.806 177.6C1173.28 -142.966 1341.57 311.475 1610.9 309.6" stroke="#ED3237"/>
<path d="M8 -32.3999C43.3064 24.8187 167.479 260.6 404.806 161.6C1173.28 -158.966 1341.57 295.475 1610.9 293.6" stroke="#ED3237"/>
<path opacity="0.1" d="M698.192 292.923C710.351 235.467 747.749 -0.706589 904.517 90.4932C1412.14 385.801 1441.89 -67.4397 1602.66 -73" stroke="#FFC804"/>
</g>
<g opacity="0.05">
<path d="M1938 599.5C1895.31 656.719 1745.18 892.5 1458.24 793.5C529.111 472.934 325.637 927.37 0.000175202 925.5" stroke="#ED3237"/>
<path d="M1938 583.5C1895.31 640.719 1745.18 876.5 1458.24 777.5C529.111 456.934 325.637 911.37 0.000175202 909.5" stroke="#ED3237"/>
<path d="M1938 567.5C1895.31 624.719 1745.18 860.5 1458.24 761.5C529.111 440.934 325.637 895.37 0.000175202 893.5" stroke="#ED3237"/>
<path d="M1938 551.5C1895.31 608.719 1745.18 844.5 1458.24 745.5C529.111 424.934 325.637 879.37 0.000175202 877.5" stroke="#ED3237"/>
<path d="M1938 535.5C1895.31 592.719 1745.18 828.5 1458.24 729.5C529.111 408.934 325.637 863.37 0.000175202 861.5" stroke="#ED3237"/>
<path d="M1938 519.5C1895.31 576.719 1745.18 812.5 1458.24 713.5C529.111 392.934 325.637 847.37 0.000175202 845.5" stroke="#ED3237"/>
<path d="M1938 503.5C1895.31 560.719 1745.18 796.5 1458.24 697.5C529.111 376.934 325.637 831.37 0.000175202 829.5" stroke="#ED3237"/>
<path d="M1938 487.5C1895.31 544.719 1745.18 780.5 1458.24 681.5C529.111 360.934 325.637 815.37 0.000175202 813.5" stroke="#ED3237"/>
<path d="M1938 471.5C1895.31 528.719 1745.18 764.5 1458.24 665.5C529.111 344.934 325.637 799.37 0.000175202 797.5" stroke="#ED3237"/>
<path d="M1938 455.5C1895.31 512.719 1745.18 748.5 1458.24 649.5C529.111 328.934 325.637 783.37 0.000175202 781.5" stroke="#ED3237"/>
<path d="M1938 439.5C1895.31 496.719 1745.18 732.5 1458.24 633.5C529.111 312.934 325.637 767.37 0.000175202 765.5" stroke="#ED3237"/>
<path d="M1938 423.5C1895.31 480.719 1745.18 716.5 1458.24 617.5C529.111 296.934 325.637 751.37 0.000175202 749.5" stroke="#ED3237"/>
<path d="M1938 407.5C1895.31 464.719 1745.18 700.5 1458.24 601.5C529.111 280.934 325.637 735.37 0.000175202 733.5" stroke="#ED3237"/>
<path d="M1938 391.5C1895.31 448.719 1745.18 684.5 1458.24 585.5C529.111 264.934 325.637 719.37 0.000175202 717.5" stroke="#ED3237"/>
<path d="M1938 375.5C1895.31 432.719 1745.18 668.5 1458.24 569.5C529.111 248.934 325.637 703.375 0.000175202 701.5" stroke="#ED3237"/>
<path opacity="0.1" d="M1103.52 700.823C1088.82 643.367 1043.6 407.193 854.056 498.393C240.312 793.7 204.337 340.46 9.96115 334.9" stroke="#FFC804"/>
</g>
</g>
<defs>
<clipPath id="clip0_50_2">
<rect width="1611" height="927" fill="white"/>
</clipPath>
</defs>
</svg>
