<svg width="27" height="27" viewBox="0 0 27 27" fill="none" xmlns="http://www.w3.org/2000/svg">
<path d="M25.9622 21.4125C25.9622 21.8625 25.8622 22.325 25.6497 22.775C25.4372 23.225 25.1622 23.65 24.7997 24.05C24.1872 24.725 23.5123 25.2125 22.7498 25.525C21.9998 25.8375 21.1873 26 20.3123 26C19.0373 26 17.6748 25.7 16.2373 25.0875C14.7998 24.475 13.3624 23.65 11.9374 22.6125C10.4999 21.5625 9.13741 20.4 7.83743 19.1125C6.54994 17.8125 5.38745 16.45 4.34996 15.025C3.32497 13.6 2.49998 12.175 1.89999 10.7625C1.3 9.3375 1 7.975 1 6.675C1 5.825 1.15 5.0125 1.44999 4.2625C1.74999 3.5 2.22499 2.8 2.88748 2.175C3.68747 1.3875 4.56246 1 5.48745 1C5.83745 1 6.18744 1.075 6.49994 1.225C6.82494 1.375 7.11243 1.6 7.33743 1.925L10.2374 6.0125C10.4624 6.325 10.6249 6.6125 10.7374 6.8875C10.8499 7.15 10.9124 7.4125 10.9124 7.65C10.9124 7.95 10.8249 8.25 10.6499 8.5375C10.4874 8.825 10.2499 9.125 9.9499 9.425L8.99991 10.4125C8.86241 10.55 8.79991 10.7125 8.79991 10.9125C8.79991 11.0125 8.81242 11.1 8.83742 11.2C8.87491 11.3 8.91241 11.375 8.93741 11.45C9.16241 11.8625 9.54991 12.4 10.0999 13.05C10.6624 13.7 11.2624 14.3625 11.9124 15.025C12.5874 15.6875 13.2374 16.3 13.8999 16.8625C14.5499 17.4125 15.0873 17.7875 15.5123 18.0125C15.5748 18.0375 15.6498 18.075 15.7373 18.1125C15.8373 18.15 15.9373 18.1625 16.0498 18.1625C16.2623 18.1625 16.4248 18.0875 16.5623 17.95L17.5123 17.0125C17.8248 16.7 18.1248 16.4625 18.4123 16.3125C18.6998 16.1375 18.9873 16.05 19.2998 16.05C19.5373 16.05 19.7873 16.1 20.0623 16.2125C20.3373 16.325 20.6248 16.4875 20.9373 16.7L25.0747 19.6375C25.3997 19.8625 25.6247 20.125 25.7622 20.4375C25.8872 20.75 25.9622 21.0625 25.9622 21.4125Z" stroke="white" stroke-width="2" stroke-miterlimit="10"/>
<path d="M21.6252 9.75C21.6252 9 21.0377 7.85 20.1627 6.9125C19.3627 6.05 18.3002 5.375 17.2502 5.375" stroke="white" stroke-width="2" stroke-linecap="round" stroke-linejoin="round"/>
<path d="M26.0001 9.75C26.0001 4.9125 22.0877 1 17.2502 1" stroke="white" stroke-width="2" stroke-linecap="round" stroke-linejoin="round"/>
</svg>
