<svg width="58" height="58" viewBox="0 0 58 58" fill="none" xmlns="http://www.w3.org/2000/svg">
<g clip-path="url(#clip0_1325_3241)">
<path d="M57.4219 27.579L51.6867 21.8438C51.3155 21.4706 50.8215 21.2657 50.2957 21.2657H44.4667V8.69903C44.4667 6.03393 42.2984 3.8657 39.6333 3.8657H30.6646C30.3292 3.29053 29.7124 2.89903 29 2.89903H26.6626C25.9096 1.16 24.1831 0 22.2333 0C20.2836 0 18.5571 1.16 17.8041 2.9H15.4667C14.7542 2.9 14.1375 3.2915 13.8021 3.86667H4.83333C2.16823 3.86667 0 6.0349 0 8.7V51.2333C0 53.8984 2.16823 56.0667 4.83333 56.0667H23.3779C23.7781 57.189 24.8414 58 26.1 58H55.1C56.6989 58 58 56.6989 58 55.1V28.9613H57.9807C57.9787 28.4529 57.797 27.9541 57.4219 27.579ZM50.3179 23.2087L56.0551 28.9459L56.0328 29L46.0974 28.9826L43.9311 23.2058L50.3179 23.2087ZM23.7771 27.579C23.402 27.9541 23.2203 28.4529 23.2193 28.9613H23.2V50.2667H5.8V9.66667H14.2873C14.818 10.2554 15.5798 10.6333 16.4333 10.6333H28.0333C28.8869 10.6333 29.6477 10.2554 30.1793 9.66667H38.6667V21.2667H30.9043C30.3775 21.2667 29.8835 21.4716 29.5143 21.8428L23.7771 27.579ZM41.8644 23.2048L44.0297 28.9787L37.1741 28.9671L39.3356 23.2039H41.8654L41.8644 23.2048ZM30.9034 23.201L37.2698 23.2039L35.1093 28.9642L25.144 28.9468L30.9034 23.201ZM36.7324 30.9343H44.4657V36.7343H36.7324V30.9343ZM42.5324 8.70097V21.2676H40.599V9.66763C40.599 8.6014 39.7319 7.7343 38.6657 7.7343H30.9324V5.80097H39.6324C41.2312 5.80097 42.5324 7.1021 42.5324 8.70097ZM15.4657 4.8343H18.4914C18.9331 4.8343 19.3188 4.53367 19.4281 4.1064C19.7538 2.8275 20.9071 1.9343 22.2324 1.9343C23.5577 1.9343 24.7109 2.8275 25.0367 4.1064C25.1449 4.53367 25.5316 4.8343 25.9734 4.8343L28.999 4.8372V7.7343C28.999 8.2679 28.566 8.70097 28.0324 8.70097H16.4324C15.8988 8.70097 15.4657 8.2679 15.4657 7.7343V4.8343ZM1.93333 51.2333V8.7C1.93333 7.10113 3.23447 5.8 4.83333 5.8H13.5333V7.73333H5.8C4.73377 7.73333 3.86667 8.60043 3.86667 9.66667V50.2667C3.86667 51.3329 4.73377 52.2 5.8 52.2H23.2V54.1333H4.83333C3.23447 54.1333 1.93333 52.8322 1.93333 51.2333ZM55.1 56.0667H26.1C25.5664 56.0667 25.1333 55.6336 25.1333 55.1V30.9285C25.1449 30.9285 25.1556 30.9333 25.1672 30.9333H34.8V36.7333C34.8 37.7996 35.6671 38.6667 36.7333 38.6667H44.4667C45.5329 38.6667 46.4 37.7996 46.4 36.7333V30.9333H56.0328C56.0444 30.9333 56.0551 30.9285 56.0667 30.9285V55.1C56.0667 55.6336 55.6336 56.0667 55.1 56.0667Z" fill="#121212"/>
<path d="M33.8331 47.3652H28.9997C27.9335 47.3652 27.0664 48.2323 27.0664 49.2986V52.1986C27.0664 53.2648 27.9335 54.1319 28.9997 54.1319H33.8331C34.8993 54.1319 35.7664 53.2648 35.7664 52.1986V49.2986C35.7664 48.2323 34.8993 47.3652 33.8331 47.3652ZM28.9997 52.1986V49.2986H33.8331L33.835 52.1986H28.9997Z" fill="#121212"/>
<path d="M47.0819 47.6487C46.7039 47.2707 46.093 47.2707 45.715 47.6487L44.7483 48.6154C44.3704 48.9933 44.3704 49.6043 44.7483 49.9822C44.9368 50.1707 45.1843 50.2655 45.4318 50.2655V53.1655C45.4318 53.7 45.8639 54.1321 46.3984 54.1321C46.933 54.1321 47.3651 53.7 47.3651 53.1655V50.2655C47.6126 50.2655 47.86 50.1707 48.0485 49.9822C48.4265 49.6043 48.4265 48.9933 48.0485 48.6154L47.0819 47.6487Z" fill="#121212"/>
<path d="M52.8826 47.6487C52.5047 47.2707 51.8937 47.2707 51.5158 47.6487L50.5491 48.6154C50.1711 48.9933 50.1711 49.6043 50.5491 49.9822C50.7376 50.1707 50.9851 50.2655 51.2325 50.2655V53.1655C51.2325 53.7 51.6646 54.1321 52.1992 54.1321C52.7338 54.1321 53.1659 53.7 53.1659 53.1655V50.2655C53.4133 50.2655 53.6608 50.1707 53.8493 49.9822C54.2273 49.6043 54.2273 48.9933 53.8493 48.6154L52.8826 47.6487Z" fill="#121212"/>
<path d="M16.5974 14.9297L13.3852 19.7486L12.2851 18.6485C11.9071 18.2705 11.2962 18.2705 10.9182 18.6485C10.5403 19.0265 10.5403 19.6374 10.9182 20.0154L12.8516 21.9487C13.0333 22.1304 13.2798 22.2319 13.535 22.2319C13.5659 22.2319 13.5978 22.23 13.6307 22.2271C13.9188 22.1991 14.1788 22.0425 14.3393 21.8018L18.2059 16.0018C18.5027 15.5571 18.3828 14.9578 17.9382 14.661C17.4925 14.3642 16.8932 14.4851 16.5974 14.9297Z" fill="#121212"/>
<path d="M16.5974 26.5293L13.3852 31.3482L12.2851 30.2481C11.9071 29.8701 11.2962 29.8701 10.9182 30.2481C10.5403 30.6261 10.5403 31.237 10.9182 31.615L12.8516 33.5483C13.0333 33.73 13.2798 33.8315 13.535 33.8315C13.5659 33.8315 13.5978 33.8296 13.6307 33.8267C13.9188 33.7987 14.1788 33.6421 14.3393 33.4014L18.2059 27.6014C18.5027 27.1567 18.3828 26.5574 17.9382 26.2606C17.4925 25.9638 16.8932 26.0847 16.5974 26.5293Z" fill="#121212"/>
<path d="M16.5974 38.1305L13.3852 42.9493L12.2851 41.8492C11.9071 41.4713 11.2962 41.4713 10.9182 41.8492C10.5403 42.2272 10.5403 42.8381 10.9182 43.2161L12.8516 45.1494C13.0333 45.3312 13.2798 45.4327 13.535 45.4327C13.5659 45.4327 13.5978 45.4307 13.6307 45.4278C13.9188 45.3998 14.1788 45.2432 14.3393 45.0025L18.2059 39.2025C18.5027 38.7578 18.3828 38.1585 17.9382 37.8617C17.4925 37.5659 16.8932 37.6858 16.5974 38.1305Z" fill="#121212"/>
</g>
<defs>
<clipPath id="clip0_1325_3241">
<rect width="58" height="58" fill="white"/>
</clipPath>
</defs>
</svg>
