<svg width="58" height="58" viewBox="0 0 58 58" fill="none" xmlns="http://www.w3.org/2000/svg">
<path fill-rule="evenodd" clip-rule="evenodd" d="M40.4602 47.484L40.875 45.9053C38.6807 44.0054 39.3765 41.8111 39.2427 39.7373C38.9483 36.8206 40.5806 34.8806 43.1762 34.5193V5.55277H9.86137V50.762H34.5866C35.376 48.8354 37.2625 47.484 39.4568 47.484H40.4602ZM44.7149 34.5193C47.3105 34.8806 48.9428 36.8206 48.6485 39.7373C48.5013 41.8245 49.2104 44.0187 47.0162 45.9053L47.4309 47.484H48.421C51.3243 47.484 53.6791 49.8388 53.6791 52.7288V57.2109C53.6791 57.639 53.3313 57.9869 52.9031 57.9869H34.9746C34.5465 57.9869 34.212 57.639 34.212 57.2109L34.2254 52.3006H9.08536C8.65721 52.3006 8.32273 51.9528 8.32273 51.5246V47.2967H5.09827C4.67013 47.2967 4.32227 46.9489 4.32227 46.5207V0.776302C4.32227 0.361538 4.67013 0.0136719 5.09827 0.0136719H39.9518C40.3799 0.0136719 40.7144 0.361538 40.7144 0.776302V4.01413H43.9389C44.367 4.01413 44.7149 4.34862 44.7149 4.77676V34.5193ZM44.0058 36.0044C43.2298 36.0713 42.7347 36.0713 41.9855 36.553C41.3968 36.9276 40.7546 37.6367 40.7278 38.9078C42.2397 38.2522 43.484 39.4028 44.2332 38.1452C44.7283 37.3156 46.7218 38.0783 47.0964 38.279C46.7753 36.7403 45.3571 36.0312 44.0058 36.0044ZM35.8978 51.6986C35.6302 52.9429 35.7506 55.0434 35.7506 56.4483H37.7308V52.1668C37.7308 51.15 39.2694 51.15 39.2694 52.1668V56.4483H48.6217V52.1668C48.6217 51.15 50.1603 51.15 50.1603 52.1668V56.4483H52.1405V52.7288C52.1405 50.6817 50.4681 49.0227 48.421 49.0227H47.1633L44.4874 51.6986C44.1931 51.9929 43.698 51.9929 43.3903 51.6986L40.7278 49.0227H39.4568C37.7709 49.0227 36.3527 50.1465 35.8978 51.6986ZM5.8609 45.7447H8.32273V4.77676C8.32273 4.34862 8.65721 4.01413 9.08536 4.01413H39.1758V1.55231H5.8609V45.7447ZM36.6337 14.5705H16.4039C15.9758 14.5705 15.6279 14.236 15.6279 13.8079V10.5968C15.6279 10.1687 15.9758 9.82082 16.4039 9.82082H36.6337C37.0618 9.82082 37.3963 10.1687 37.3963 10.5968V13.8079C37.3963 14.236 37.0618 14.5705 36.6337 14.5705ZM17.1799 13.0319H35.8577V11.3595H17.1799V13.0319ZM39.711 25.1671H13.3266C12.8985 25.1671 12.5506 24.8192 12.5506 24.4044V18.8787C12.5506 18.4506 12.8985 18.1027 13.3266 18.1027H39.711C40.1257 18.1027 40.4736 18.4506 40.4736 18.8787V24.4044C40.4736 24.8192 40.1257 25.1671 39.711 25.1671ZM14.1027 23.6284H38.935V19.6414H14.1027V23.6284ZM37.4097 35.8305H13.3266C12.8985 35.8305 12.5506 35.4826 12.5506 35.0545V29.5422C12.5506 29.114 12.8985 28.7662 13.3266 28.7662H37.4097C37.8378 28.7662 38.1857 29.114 38.1857 29.5422V35.0545C38.1857 35.4826 37.8378 35.8305 37.4097 35.8305ZM14.1027 34.2919H36.6337V30.3048H14.1027V34.2919ZM34.9211 46.494H13.3266C12.8985 46.494 12.5506 46.1461 12.5506 45.7179V40.1922C12.5506 39.7641 12.8985 39.4296 13.3266 39.4296H34.9211C35.3493 39.4296 35.6971 39.7641 35.6971 40.1922V45.7179C35.6971 46.1461 35.3493 46.494 34.9211 46.494ZM14.1027 44.9419H34.1451V40.9682H14.1027V44.9419ZM36.4731 22.4109H16.5645C15.5476 22.4109 15.5476 20.8589 16.5645 20.8589H36.4731C37.49 20.8589 37.49 22.4109 36.4731 22.4109ZM34.4528 33.0743H16.2835C15.2667 33.0743 15.2667 31.5223 16.2835 31.5223H34.4528C35.4697 31.5223 35.4697 33.0743 34.4528 33.0743ZM32.272 43.7244H15.9758C14.9589 43.7244 14.9589 42.1858 15.9758 42.1858H32.272C33.2888 42.1858 33.2888 43.7244 32.272 43.7244ZM45.9726 48.0192L45.6381 46.7348C44.5543 47.1495 43.3368 47.1495 42.2531 46.7348L41.9052 48.0192L43.9389 50.0529L45.9726 48.0192ZM42.1326 44.9286C43.4037 45.651 44.4339 45.7581 45.7451 44.9286C47.2035 44.0187 47.15 42.3196 47.0964 40.7943C47.0429 39.938 46.4275 39.4564 45.2634 39.3359C44.755 39.8979 43.6044 40.6204 42.4136 40.2725C42.1193 40.1922 41.1693 40.0049 40.7813 40.9147V42.3463C40.7813 43.4167 41.3165 44.3666 42.1326 44.9286Z" fill="#121212"/>
</svg>
