<?xml version="1.0" encoding="UTF-8"?>
<svg xmlns="http://www.w3.org/2000/svg" xmlns:xlink="http://www.w3.org/1999/xlink" version="1.1" id="Capa_1" x="0px" y="0px" viewBox="0 0 512 512" style="enable-background:new 0 0 512 512;" xml:space="preserve" width="512" height="512">
<g>
	<path style="fill:none;stroke:#000000;stroke-width:15;stroke-linecap:round;stroke-linejoin:round;stroke-miterlimit:10;" d="&#10;&#9;&#9;M487.033,392.052H24.967c-9.647,0-17.467-7.82-17.467-17.467v0c0-9.647,7.82-17.467,17.467-17.467h462.066&#10;&#9;&#9;c9.647,0,17.467,7.82,17.467,17.467v0C504.5,384.232,496.68,392.052,487.033,392.052z"/>
	<path style="fill:none;stroke:#000000;stroke-width:15;stroke-linecap:round;stroke-linejoin:round;stroke-miterlimit:10;" d="&#10;&#9;&#9;M147.954,437.679h271.375c11.967,0,23.206-5.749,30.209-15.453l21.778-30.177H40.684l21.778,30.177&#10;&#9;&#9;c7.003,9.704,18.242,15.453,30.209,15.453h20.172"/>
	<path style="fill:none;stroke:#000000;stroke-width:15;stroke-linecap:round;stroke-linejoin:round;stroke-miterlimit:10;" d="&#10;&#9;&#9;M84.297,357.12c-17.41-23.78-27.4-57.13-27.4-103.65c0-14.61,2.41-28.76,6.93-42.2l35.22,20.18c0,0,0,0,0,0.01"/>
	<path style="fill:none;stroke:#000000;stroke-width:15;stroke-linecap:round;stroke-linejoin:round;stroke-miterlimit:10;" d="&#10;&#9;&#9;M402.707,249.75c0-0.01,0.01-0.01,0.01-0.01l48.93-14.6c0.85,6.01,1.29,12.13,1.29,18.33c0,28.107-3.647,51.406-10.374,70.692"/>
	<path style="fill:none;stroke:#000000;stroke-width:15;stroke-linecap:round;stroke-linejoin:round;stroke-miterlimit:10;" d="&#10;&#9;&#9;M166.932,170.439h-19.189c-3.863,0-6.995-3.132-6.995-6.995v-19.189c0-3.863,3.132-6.995,6.995-6.995h19.189&#10;&#9;&#9;c3.863,0,6.995,3.132,6.995,6.995v19.189C173.927,167.308,170.795,170.439,166.932,170.439z"/>
	<path style="fill:none;stroke:#000000;stroke-width:15;stroke-linecap:round;stroke-linejoin:round;stroke-miterlimit:10;" d="&#10;&#9;&#9;M292.487,176.339l-13.569-13.569c-2.732-2.732-2.732-7.161,0-9.893l13.569-13.569c2.732-2.732,7.161-2.732,9.893,0l13.569,13.569&#10;&#9;&#9;c2.732,2.732,2.732,7.161,0,9.893l-13.569,13.569C299.648,179.071,295.219,179.071,292.487,176.339z"/>
	<path style="fill:none;stroke:#000000;stroke-width:15;stroke-linecap:round;stroke-linejoin:round;stroke-miterlimit:10;" d="&#10;&#9;&#9;M224.121,222.856l-13.569-13.569c-2.732-2.732-2.732-7.161,0-9.893l13.569-13.569c2.732-2.732,7.161-2.732,9.893,0l13.569,13.569&#10;&#9;&#9;c2.732,2.732,2.732,7.161,0,9.893l-13.569,13.569C231.283,225.588,226.853,225.588,224.121,222.856z"/>
	<path style="fill:none;stroke:#000000;stroke-width:15;stroke-linecap:round;stroke-linejoin:round;stroke-miterlimit:10;" d="&#10;&#9;&#9;M321.198,75.794c0,0-60.849-14.576-62.911,47.961C258.287,123.755,316.939,143.563,321.198,75.794z"/>
	<path style="fill:none;stroke:#000000;stroke-width:15;stroke-linecap:round;stroke-linejoin:round;stroke-miterlimit:10;" d="&#10;&#9;&#9;M214.877,90.592c0,0,41.987-10.058,43.41,33.094C258.287,123.686,217.816,137.354,214.877,90.592z"/>
	<path style="fill:none;stroke:#000000;stroke-width:15;stroke-linecap:round;stroke-linejoin:round;stroke-miterlimit:10;" d="&#10;&#9;&#9;M63.827,211.27c0,0,27.1-27.87,77-46.87"/>
	<path style="fill:none;stroke:#000000;stroke-width:15;stroke-linecap:round;stroke-linejoin:round;stroke-miterlimit:10;" d="&#10;&#9;&#9;M375.307,178.18c53.34,25.43,76.34,56.96,76.34,56.96"/>
	
		<line style="fill:none;stroke:#000000;stroke-width:15;stroke-linecap:round;stroke-linejoin:round;stroke-miterlimit:10;" x1="297.434" y1="209.631" x2="304.417" y2="225.745"/>
	
		<line style="fill:none;stroke:#000000;stroke-width:15;stroke-linecap:round;stroke-linejoin:round;stroke-miterlimit:10;" x1="343.942" y1="217.688" x2="356.834" y2="228.431"/>
	
		<line style="fill:none;stroke:#000000;stroke-width:15;stroke-linecap:round;stroke-linejoin:round;stroke-miterlimit:10;" x1="333.422" y1="190.478" x2="333.422" y2="190.478"/>
	
		<line style="fill:none;stroke:#000000;stroke-width:15;stroke-linecap:round;stroke-linejoin:round;stroke-miterlimit:10;" x1="161.924" y1="204.341" x2="161.924" y2="204.341"/>
	<path style="fill:none;stroke:#000000;stroke-width:15;stroke-linecap:round;stroke-linejoin:round;stroke-miterlimit:10;" d="&#10;&#9;&#9;M173.847,143.26c23.51-11.09,50.79-16.81,79.86-16.81c82.32,0,139.92,43.4,149.01,123.29c-59.04,36.73-69.55,15.27-103.54,15.27&#10;&#9;&#9;c-15.46,0-8.31,21.71-28.27,21.71c-20.18,0-11.73-35.86-31.97-33.94c-16.64,1.58,0.86,69.69-27.39,69.69s-8.56-71-24.83-69.69&#10;&#9;&#9;c-16.26,1.31-18.83,22.67-47.08,22.67c-28.26,0-40.59-44-40.59-44c7.5-27.51,22.13-49.95,41.8-66.9"/>
</g>















</svg>
