<?xml version="1.0" encoding="UTF-8" standalone="no"?>
<!-- Created with Inkscape (http://www.inkscape.org/) -->

<svg
   version="1.1"
   id="svg2442"
   xml:space="preserve"
   width="682.66669"
   height="682.66669"
   viewBox="0 0 682.66669 682.66669"
   xmlns="http://www.w3.org/2000/svg"
   xmlns:svg="http://www.w3.org/2000/svg"><defs
     id="defs2446"><clipPath
       clipPathUnits="userSpaceOnUse"
       id="clipPath2456"><path
         d="M 0,512 H 512 V 0 H 0 Z"
         id="path2454" /></clipPath></defs><g
     id="g2448"
     transform="matrix(1.3333333,0,0,-1.3333333,0,682.66667)"><g
       id="g2450"><g
         id="g2452"
         clip-path="url(#clipPath2456)"><g
           id="g2458"
           transform="translate(426.2656,158.7686)"><path
             d="m 0,0 v 97.231 132.346 c 0,7.467 2.583,14.702 7.311,20.482 l 13.53,16.537 c 4.727,5.778 7.31,13.014 7.31,20.48 v 11.394 h -396.835 v -11.394 c 0,-7.466 2.583,-14.702 7.311,-20.48 l 13.531,-16.537 c 4.728,-5.78 7.311,-13.015 7.311,-20.481 V 97.231 -35.115 c 0,-7.466 -2.583,-14.702 -7.311,-20.481 l -13.531,-16.537 c -4.728,-5.778 -7.311,-13.014 -7.311,-20.48 v -11.394 H 28.151 v 11.394 c 0,7.466 -2.583,14.702 -7.31,20.48 L 7.311,-55.596 C 2.583,-49.817 0,-42.581 0,-35.115"
             style="fill:none;stroke:#000000;stroke-width:15;stroke-linecap:round;stroke-linejoin:round;stroke-miterlimit:10;stroke-dasharray:none;stroke-opacity:1"
             id="path2460" /></g><g
           id="g2462"
           transform="translate(178.0835,331.1689)"><path
             d="M 0,0 H 248.182 V -149.751 H -92.349 V 0 h 57.522"
             style="fill:none;stroke:#000000;stroke-width:15;stroke-linecap:round;stroke-linejoin:round;stroke-miterlimit:10;stroke-dasharray:none;stroke-opacity:1"
             id="path2464" /></g><g
           id="g2466"
           transform="translate(454.417,504.4746)"><path
             d="m 0,0 -39.688,-20 -39.689,20 -39.684,-20 -39.684,20 -39.683,-20 -39.682,20 -39.678,-20 -39.682,20 -39.683,-20 -39.682,20 V -47.232 H 0 Z"
             style="fill:none;stroke:#000000;stroke-width:15;stroke-linecap:round;stroke-linejoin:round;stroke-miterlimit:10;stroke-dasharray:none;stroke-opacity:1"
             id="path2468" /></g><g
           id="g2470"
           transform="translate(454.417,7.5254)"><path
             d="M 0,0 -39.688,20 -79.377,0 -119.061,20 -158.745,0 -198.428,20 -238.11,0 -277.788,20 -317.47,0 -357.153,20 -396.835,0 V 47.232 H 0 Z"
             style="fill:none;stroke:#000000;stroke-width:15;stroke-linecap:round;stroke-linejoin:round;stroke-miterlimit:10;stroke-dasharray:none;stroke-opacity:1"
             id="path2472" /></g><g
           id="g2474"
           transform="translate(234.7158,231.085)"><path
             d="m 0,0 18.875,49.56 c 0.386,0.943 1.721,0.944 2.108,0.003 L 39.688,0"
             style="fill:none;stroke:#000000;stroke-width:10;stroke-linecap:round;stroke-linejoin:round;stroke-miterlimit:10;stroke-dasharray:none;stroke-opacity:1"
             id="path2476" /></g><g
           id="g2478"
           transform="translate(240.6025,243.4287)"><path
             d="M 0,0 H 28.009"
             style="fill:none;stroke:#000000;stroke-width:10;stroke-linecap:round;stroke-linejoin:round;stroke-miterlimit:10;stroke-dasharray:none;stroke-opacity:1"
             id="path2480" /></g><g
           id="g2482"
           transform="translate(178.0845,231.085)"><path
             d="M 0,0 V 50.322 L 34.022,1.056 c 0.631,-0.911 1.307,-0.465 1.307,0.643 l -0.472,48.718"
             style="fill:none;stroke:#000000;stroke-width:10;stroke-linecap:round;stroke-linejoin:round;stroke-miterlimit:10;stroke-dasharray:none;stroke-opacity:1"
             id="path2484" /></g><g
           id="g2486"
           transform="translate(358.1113,281.3525)"><path
             d="M 0,0 V -50.268"
             style="fill:none;stroke:#000000;stroke-width:10;stroke-linecap:round;stroke-linejoin:round;stroke-miterlimit:10;stroke-dasharray:none;stroke-opacity:1"
             id="path2488" /></g><g
           id="g2490"
           transform="translate(385.1523,280.7187)"><path
             d="M 0,0 -25.432,-23.376 1.784,-49.634"
             style="fill:none;stroke:#000000;stroke-width:10;stroke-linecap:round;stroke-linejoin:round;stroke-miterlimit:10;stroke-dasharray:none;stroke-opacity:1"
             id="path2492" /></g><g
           id="g2494"
           transform="translate(331.0918,277.0605)"><path
             d="m 0,0 c -4.011,2.71 -8.847,4.292 -14.052,4.292 -13.882,0 -25.134,-11.253 -25.134,-25.134 0,-13.881 11.252,-25.134 25.134,-25.134 5.638,0 10.275,1.857 13.794,4.992 0.728,0.648 1.408,1.351 2.04,2.104"
             style="fill:none;stroke:#000000;stroke-width:10;stroke-linecap:round;stroke-linejoin:round;stroke-miterlimit:10;stroke-dasharray:none;stroke-opacity:1"
             id="path2496" /></g><g
           id="g2498"
           transform="translate(156.0444,276.1855)"><path
             d="m 0,0 c 0,0 -9.02,7.582 -19.657,4.378 -9.766,-2.942 -11.133,-14.204 -4.067,-18.811 0,0 6.934,-3.093 14.624,-5.929 18.512,-6.829 10.538,-24.739 -4.364,-24.739 -7.463,0 -13.727,3.269 -17.517,7.453"
             style="fill:none;stroke:#000000;stroke-width:10;stroke-linecap:round;stroke-linejoin:round;stroke-miterlimit:10;stroke-dasharray:none;stroke-opacity:1"
             id="path2500" /></g></g></g></g></svg>
