<?xml version="1.0" encoding="iso-8859-1"?>
<!-- Generator: Adobe Illustrator 19.0.0, SVG Export Plug-In . SVG Version: 6.00 Build 0)  -->
<svg version="1.1" id="Capa_1" xmlns="http://www.w3.org/2000/svg" xmlns:xlink="http://www.w3.org/1999/xlink" x="0px" y="0px"
	 viewBox="0 0 512 512" style="enable-background:new 0 0 512 512;" xml:space="preserve">
<g>
	<g>
		<path d="M436.992,75.046C388.648,26.701,324.37,0.076,256,0.076c-59.432,0-117.011,20.702-162.734,58.391L42.019,7.22
			c-5.117-5.123-12.196-7.725-19.421-7.139C15.378,0.666,8.79,4.409,4.522,10.349c-6.923,9.637-5.492,23.557,3.33,32.378
			l50.577,50.577c-37.697,45.732-58.39,103.268-58.39,162.734c0,68.37,26.625,132.647,74.97,180.992
			C123.353,485.375,187.63,512,256,512s132.647-26.625,180.992-74.97c48.345-48.345,74.97-112.622,74.97-180.992
			S485.338,123.391,436.992,75.046z M18.458,32.12c-3.624-3.625-4.394-9.343-1.753-13.02c1.718-2.391,4.241-3.836,7.105-4.068
			c2.821-0.229,5.597,0.787,7.599,2.792l99.892,99.892c17.916,17.917,41.49,29.379,68.59,33.501
			c-20.669,11.073-37.654,28.044-48.717,48.684c-4.126-27.088-15.587-50.651-33.497-68.561L18.458,32.12z M426.386,426.424
			C380.874,471.936,320.363,497,256,497s-124.874-25.064-170.386-70.576c-45.512-45.512-70.576-106.022-70.576-170.386
			c0-55.498,19.152-109.203,54.055-152.07l19.742,19.743c-29.857,37.638-46.163,84.611-46.014,132.915
			c0.155,50.178,18.053,98.833,50.398,137.001c1.483,1.75,3.597,2.651,5.726,2.651c1.713,0,3.436-0.584,4.845-1.778
			c3.16-2.678,3.551-7.411,0.873-10.571c-30.062-35.475-46.698-80.701-46.842-127.349c-0.136-44.325,14.631-87.437,41.699-122.185
			l7.55,7.55c17.438,17.437,27.919,41.194,30.312,68.703c0.186,2.141,0.476,4.312,0.861,6.452c0.587,3.263,1.438,6.514,2.524,9.667
			c-0.445,1.76-0.866,3.529-1.232,5.32c-0.831,4.058,1.786,8.021,5.844,8.851c0.507,0.104,1.013,0.154,1.511,0.154
			c3.488,0,6.613-2.447,7.34-5.998c8.172-39.936,39.158-71.503,78.94-80.421c4.042-0.906,6.584-4.917,5.678-8.959
			c-0.906-4.042-4.919-6.584-8.959-5.678c-1.066,0.239-2.122,0.506-3.177,0.773c-3.154-1.084-6.387-1.941-9.649-2.528
			c-2.139-0.385-4.31-0.675-6.453-0.861c-27.509-2.394-51.266-12.875-68.703-30.313l-7.539-7.539
			c34.77-27.055,77.905-41.821,122.243-41.624c46.59,0.18,91.762,16.815,127.194,46.841c1.409,1.194,3.132,1.778,4.845,1.778
			c2.128,0,4.242-0.9,5.726-2.651c2.678-3.16,2.287-7.893-0.873-10.57C355.381,61.038,306.786,43.14,256.67,42.946
			c-0.275-0.001-0.548-0.001-0.823-0.001c-48.024,0-94.715,16.264-132.165,45.938l-19.755-19.755
			C146.785,34.231,200.535,15.076,256,15.076c64.363,0,124.874,25.064,170.386,70.576c45.512,45.512,70.576,106.022,70.576,170.386
			S471.898,380.912,426.386,426.424z"/>
	</g>
</g>
<g>
	<g>
		<path d="M418.609,118.449c-2.677-3.159-7.41-3.551-10.57-0.873c-3.16,2.678-3.551,7.411-0.873,10.571
			c32.027,37.793,48.61,85.966,46.694,135.645c-1.926,49.961-22.472,96.96-57.851,132.34
			c-35.379,35.38-82.378,55.925-132.339,57.851c-49.683,1.917-97.853-14.667-135.646-46.695c-3.159-2.678-7.892-2.287-10.57,0.873
			c-2.678,3.16-2.287,7.893,0.873,10.57c38.55,32.669,87.124,50.401,137.601,50.401c2.766,0,5.544-0.053,8.32-0.161
			c53.749-2.072,104.309-24.174,142.368-62.233c38.06-38.059,60.161-88.62,62.234-142.368
			C470.91,210.935,453.068,159.112,418.609,118.449z"/>
	</g>
</g>
<g>
	<g>
		<path d="M369.9,188.825c-0.899-1.774-2.466-3.12-4.356-3.739l-11.585-3.795c1.99-1.204,3.351-3.273,3.59-5.65
			c0.295-2.938-1.16-5.775-3.718-7.249c-25.936-14.944-56.911-18.14-84.983-8.768c-28.072,9.373-50.914,30.536-62.67,58.064
			c-1.16,2.715-0.618,5.857,1.383,8.028c1.445,1.568,3.456,2.418,5.516,2.418c0.794,0,1.595-0.126,2.374-0.386l17.291-5.773
			c-0.945,2.612-1.463,5.426-1.463,8.36c0,13.584,11.052,24.636,24.636,24.636c13.584,0,24.635-11.052,24.635-24.636
			c0-8.607-4.441-16.193-11.148-20.6l49.529-16.536l-6.086,18.576c-0.619,1.891-0.462,3.949,0.437,5.724
			c0.899,1.774,2.466,3.12,4.356,3.739l32.567,10.67c0.775,0.254,1.562,0.375,2.336,0.375c3.154,0,6.09-2.006,7.126-5.167
			l10.67-32.567C370.956,192.659,370.799,190.6,369.9,188.825z M255.915,239.971c-5.313,0-9.636-4.322-9.636-9.636
			c0-5.312,4.323-9.635,9.636-9.635c5.313,0,9.635,4.323,9.635,9.635C265.55,235.649,261.228,239.971,255.915,239.971z
			 M228.907,207.442c10.887-15.65,26.509-27.519,44.692-33.589c9.053-3.022,18.458-4.515,27.859-4.515
			c9.482,0,18.957,1.519,28.048,4.517L228.907,207.442z M347.748,215.319l-18.313-6l6-18.312l18.313,6L347.748,215.319z"/>
	</g>
</g>
<g>
	<g>
		<path d="M380.146,241.041c-13.584,0-24.636,11.052-24.636,24.636s11.052,24.635,24.636,24.635s24.635-11.051,24.635-24.635
			S393.73,241.041,380.146,241.041z M380.146,275.312c-5.313,0-9.636-4.322-9.636-9.635c0-5.313,4.323-9.636,9.636-9.636
			s9.635,4.323,9.635,9.636S385.459,275.312,380.146,275.312z"/>
	</g>
</g>
<g>
	<g>
		<path d="M281.617,94.321c-13.584,0-24.635,11.051-24.635,24.635s11.051,24.635,24.635,24.635s24.635-11.051,24.635-24.635
			S295.201,94.321,281.617,94.321z M281.617,128.591c-5.313,0-9.635-4.322-9.635-9.635s4.322-9.635,9.635-9.635
			s9.635,4.322,9.635,9.635S286.93,128.591,281.617,128.591z"/>
	</g>
</g>
<g>
	<g>
		<path d="M348.633,308.884c-2.77-29.465-18.208-56.507-42.357-74.194c-2.381-1.745-5.565-1.93-8.133-0.472
			c-2.568,1.457-4.042,4.285-3.766,7.225l4.709,50.1l-12.165-12.165c-1.406-1.407-3.314-2.197-5.303-2.197s-3.897,0.791-5.303,2.197
			l-24.233,24.233c-2.929,2.929-2.929,7.677,0,10.606l24.233,24.233c1.464,1.465,3.384,2.197,5.303,2.197s3.839-0.732,5.303-2.197
			l15.149-15.149l5.823,61.954c0.276,2.939,2.251,5.443,5.046,6.396c0.793,0.271,1.61,0.402,2.42,0.402
			c2.043,0,4.039-0.836,5.482-2.381C341.272,367.796,351.401,338.35,348.633,308.884z M281.617,322.54l-13.626-13.626l13.626-13.626
			l13.626,13.626L281.617,322.54z M321.031,364.741l-9.924-105.593c12.777,14.15,20.798,32.055,22.591,51.14
			C335.491,329.373,330.948,348.459,321.031,364.741z"/>
	</g>
</g>
<g>
	<g>
		<path d="M260.957,361.296l-106.909-97.134c-2.186-1.985-5.331-2.504-8.039-1.325c-2.707,1.179-4.47,3.836-4.504,6.788
			c-0.019,1.613,0.006,3.221,0.061,4.825l-26.866-8.802c-1.89-0.62-3.949-0.463-5.724,0.436c-1.775,0.899-3.119,2.465-3.739,4.356
			l-10.669,32.567c-1.29,3.937,0.856,8.173,4.792,9.462l32.567,10.67c0.763,0.249,1.551,0.373,2.337,0.373
			c1.167,0,2.328-0.272,3.389-0.809c1.774-0.899,3.119-2.465,3.739-4.356l5.08-15.506c5.495,17.231,15.392,32.878,28.95,45.197
			c1.648,1.498,3.354,2.914,5.086,4.293c-10.253,2.98-17.771,12.454-17.771,23.655c0,13.584,11.051,24.635,24.635,24.635
			s24.635-11.051,24.635-24.635c0-2.387-0.348-4.692-0.984-6.876c10.965,3.802,22.576,5.803,34.369,5.803
			c3.762,0,7.543-0.202,11.325-0.609c2.936-0.317,5.412-2.326,6.327-5.133C263.959,366.363,263.142,363.281,260.957,361.296z
			 M129.471,306.55l-18.312-6l6-18.313l18.312,6L129.471,306.55z M187.373,385.621c-5.313,0-9.635-4.323-9.635-9.635
			c0-5.313,4.322-9.636,9.635-9.636s9.635,4.322,9.635,9.636C197.008,381.298,192.686,385.621,187.373,385.621z M185.509,336.936
			c-14.188-12.891-23.694-30.054-27.341-48.766l78.497,71.32C217.69,357.648,199.696,349.826,185.509,336.936z"/>
	</g>
</g>
<g>
	<g>
		<path d="M284.227,391.594c-1.631-3.808-6.041-5.57-9.848-3.939l-9.996,4.284c-3.807,1.632-5.571,6.041-3.939,9.848
			c1.219,2.844,3.987,4.547,6.897,4.547c0.986,0,1.988-0.195,2.951-0.608l9.996-4.284
			C284.095,399.811,285.859,395.401,284.227,391.594z"/>
	</g>
</g>
<g>
	<g>
		<path d="M222.111,270.219l-4.284-9.995c-1.631-3.808-6.043-5.571-9.848-3.939c-3.808,1.632-5.571,6.041-3.939,9.848l4.284,9.995
			c1.219,2.844,3.987,4.547,6.897,4.547c0.986,0,1.988-0.196,2.951-0.608C221.98,278.436,223.743,274.026,222.111,270.219z"/>
	</g>
</g>
<g>
	<g>
		<path d="M414.036,207.615c-1.311-3.93-5.557-6.054-9.487-4.744l-8.568,2.856c-3.93,1.31-6.053,5.558-4.744,9.487
			c1.047,3.144,3.973,5.131,7.114,5.131c0.786,0,1.586-0.125,2.373-0.387l8.568-2.856
			C413.222,215.792,415.345,211.545,414.036,207.615z"/>
	</g>
</g>
<g>
	<g>
		<path d="M393.149,331.012l-11.429-6.521c-3.598-2.052-8.178-0.8-10.23,2.798c-2.052,3.598-0.8,8.178,2.798,10.231l11.429,6.521
			c1.172,0.669,2.449,0.987,3.709,0.987c2.605,0,5.138-1.36,6.521-3.785C398,337.645,396.747,333.064,393.149,331.012z"/>
	</g>
</g>
<g>
	<g>
		<path d="M353.583,388.232c-2.752-3.095-7.492-3.375-10.588-0.623l-4.819,4.284c-3.096,2.752-3.375,7.493-0.623,10.588
			c1.481,1.668,3.539,2.518,5.608,2.518c1.772,0,3.551-0.625,4.98-1.895l4.819-4.284
			C356.056,396.068,356.335,391.327,353.583,388.232z"/>
	</g>
</g>
<g>
	<g>
		<path d="M186.463,218.861c-3.182-2.651-7.912-2.221-10.563,0.961l-3.57,4.284c-2.652,3.182-2.222,7.912,0.96,10.563
			c1.402,1.168,3.104,1.738,4.797,1.738c2.149,0,4.282-0.919,5.766-2.699l3.57-4.284
			C190.075,226.241,189.645,221.512,186.463,218.861z"/>
	</g>
</g>
<g>
	<g>
		<path d="M214.096,102.943l-3.57-3.57c-2.929-2.929-7.678-2.929-10.606,0c-2.929,2.929-2.929,7.678,0,10.606l3.57,3.57
			c1.464,1.464,3.384,2.197,5.303,2.197c1.919,0,3.839-0.732,5.303-2.197C217.025,110.62,217.025,105.872,214.096,102.943z"/>
	</g>
</g>
<g>
	<g>
		<path d="M121.846,218.891c-1.984-3.636-6.539-4.978-10.176-2.993l-7.854,4.283c-3.636,1.983-4.977,6.539-2.993,10.176
			c1.363,2.496,3.935,3.91,6.592,3.91c1.213,0,2.444-0.295,3.584-0.917l7.854-4.284C122.489,227.083,123.83,222.527,121.846,218.891
			z"/>
	</g>
</g>
<g>
	<g>
		<path d="M354.933,128.355l-5.711-2.142c-3.876-1.455-8.202,0.51-9.656,4.389c-1.454,3.878,0.511,8.201,4.39,9.656l5.711,2.142
			c0.867,0.325,1.757,0.479,2.632,0.479c3.037,0,5.895-1.857,7.023-4.868C360.777,134.132,358.811,129.809,354.933,128.355z"/>
	</g>
</g>
<g>
	<g>
		<path d="M235.614,393.187c-3.513-2.196-8.14-1.128-10.335,2.385l-3.57,5.712c-2.195,3.513-1.127,8.14,2.385,10.335
			c1.236,0.772,2.61,1.141,3.968,1.141c2.5,0,4.945-1.25,6.367-3.526l3.57-5.712C240.194,400.01,239.126,395.382,235.614,393.187z"
			/>
	</g>
</g>
<g>
</g>
<g>
</g>
<g>
</g>
<g>
</g>
<g>
</g>
<g>
</g>
<g>
</g>
<g>
</g>
<g>
</g>
<g>
</g>
<g>
</g>
<g>
</g>
<g>
</g>
<g>
</g>
<g>
</g>
</svg>
