<svg id="Capa_1" enable-background="new 0 0 512 512" height="512" viewBox="0 0 512 512" width="512" xmlns="http://www.w3.org/2000/svg"><g><path d="m489.609 364.928c14.362-16.367 22.391-37.382 22.391-59.472 0-47.918-37.144-86.46-83.142-90.043-3.474-44.075-38.649-79.335-82.812-82.804-1.247-15.819-6.607-30.932-15.697-44.078-2.354-3.406-7.025-4.259-10.434-1.903-3.407 2.355-4.259 7.027-1.903 10.435 7.354 10.636 11.77 22.82 12.973 35.587-33.623 2.921-62.034 24.327-74.981 53.964-12.943-29.659-41.358-51.071-74.989-53.98 3.617-38.194 35.86-68.178 74.985-68.178 15.388 0 30.197 4.631 42.826 13.393 3.403 2.362 8.077 1.517 10.437-1.887 2.361-3.403 1.516-8.076-1.887-10.438-5.344-3.707-11.018-6.784-16.927-9.232 10.729-13.177 3.375-33.199-13.314-36.284-3.135-8.667-11.388-14.758-21.135-14.758-9.746 0-17.999 6.091-21.134 14.758-16.591 3.067-24.08 23.023-13.319 36.282-30.653 12.695-52.855 41.792-55.593 76.288-44.075 3.498-79.342 38.769-82.834 82.846-46.564 3.689-83.12 42.688-83.12 90.032 0 22.08 8.033 43.089 22.402 59.457-13.178 5.779-22.402 18.873-22.402 34.073 0 20.532 16.822 37.236 37.5 37.236h9.631c4.168 14.719 11.838 28.312 22.408 39.604 2.83 3.025 7.577 3.181 10.601.351s3.181-7.576.351-10.601c-7.943-8.487-13.939-18.506-17.646-29.354h50.138c4.142 0 7.5-3.357 7.5-7.5s-3.358-7.5-7.5-7.5h-60.043c-.013 0-.025 0-.038 0h-15.402c-12.407 0-22.5-9.976-22.5-22.236s10.093-22.236 22.591-22.236h436.909c12.406 0 22.5 9.976 22.5 22.236s-10.094 22.236-22.5 22.236h-15.384c-.028 0-.056 0-.084 0h-60.015c-4.143 0-7.5 3.357-7.5 7.5s3.357 7.5 7.5 7.5h50.13c-11.183 32.666-42.65 55.527-78.147 55.527h-230c-13.514 0-26.915-3.305-38.753-9.558-3.662-1.935-8.2-.532-10.134 3.129-1.935 3.663-.534 8.2 3.129 10.135 13.989 7.389 29.812 11.294 45.758 11.294h230c22.447 0 44.359-7.752 61.701-21.828 15.511-12.591 26.761-29.716 32.149-48.699h9.65c20.678 0 37.5-16.704 37.5-37.236 0-15.186-9.208-28.27-22.391-34.058zm-249.579-330.222c4.392.59 8.351-2.753 8.491-7.197.128-4.07 3.414-7.259 7.48-7.259 4.065 0 7.351 3.188 7.479 7.258.141 4.47 4.138 7.797 8.489 7.197 7.208-.943 11.299 7.732 6.308 12.72l-3.919 3.918c-5.993-1.241-12.134-1.887-18.359-1.887-6.292 0-12.435.649-18.368 1.879l-3.909-3.908c-5.036-5.038-.83-13.671 6.308-12.721zm98.805 112.596h.025c39.72 0 71.431 30.585 74.965 68.169-34.216 2.95-62.277 24.836-74.977 53.876-12.622-28.876-40.74-50.974-74.999-53.888 3.624-38.164 35.867-68.138 74.986-68.157zm-165.668-.013c39.125 0 71.37 29.986 74.985 68.183-34.134 2.945-62.237 24.763-74.969 53.876-12.623-28.875-40.736-50.976-75-53.889 3.62-38.19 35.861-68.17 74.984-68.17zm-32.841 214.461h-99.953c-16.156-14.341-25.373-34.707-25.373-56.294 0-40.756 31.892-73.822 72.606-75.278 42.72-1.525 78.054 32.706 78.061 75.269v.009s0 .006 0 .009c-.002 21.588-9.208 41.95-25.341 56.285zm20.619 0c4.97-6.216 9.074-13.028 12.226-20.258 3.156 7.229 7.264 14.041 12.239 20.258zm145.047 0h-99.953c-16.153-14.339-25.37-34.702-25.372-56.286 0-.003 0-.006 0-.009s0-.006 0-.009c.005-40.751 31.897-73.812 72.606-75.269 42.715-1.525 78.052 32.703 78.06 75.265 0 .004.001.008.001.012s-.001.008-.001.012c-.003 21.588-9.208 41.95-25.341 56.284zm20.62 0c4.97-6.217 9.074-13.028 12.226-20.259 3.156 7.23 7.263 14.042 12.239 20.259zm145.047 0h-99.953c-16.152-14.338-25.37-34.701-25.373-56.284 0-.004-.001-.008-.001-.012s.001-.008.001-.012c.007-40.748 31.899-73.809 72.606-75.265 42.782-1.508 78.061 32.744 78.061 75.279 0 21.591-9.205 41.957-25.341 56.294z"/><circle cx="124.847" cy="300.491" r="7.5"/><circle cx="44.847" cy="280.491" r="7.5"/><circle cx="124.847" cy="200.491" r="7.5"/><circle cx="204.847" cy="190.491" r="7.5"/><circle cx="334.847" cy="230.491" r="7.5"/><circle cx="364.847" cy="180.491" r="7.5"/><circle cx="284.847" cy="120.491" r="7.5"/><circle cx="234.847" cy="90.491" r="7.5"/><circle cx="94.847" cy="340.491" r="7.5"/><circle cx="214.847" cy="318.491" r="7.5"/><circle cx="284.847" cy="338.491" r="7.5"/><circle cx="444.847" cy="328.491" r="7.5"/><circle cx="304.847" cy="288.491" r="7.5"/><circle cx="388.847" cy="313.491" r="7.5"/><circle cx="428.847" cy="273.491" r="7.5"/><path d="m325.948 443.568v-12c0-4.142-3.357-7.5-7.5-7.5s-7.5 3.358-7.5 7.5v12c0 4.142 3.357 7.5 7.5 7.5s7.5-3.358 7.5-7.5z"/><path d="m201.052 443.568v-12c0-4.142-3.357-7.5-7.5-7.5s-7.5 3.358-7.5 7.5v12c0 4.142 3.357 7.5 7.5 7.5s7.5-3.358 7.5-7.5z"/><path d="m278.118 448.138c2.722-3.123 2.396-7.86-.727-10.582-3.122-2.721-7.859-2.396-10.582.727-5.727 6.57-15.898 6.563-21.619 0-2.72-3.123-7.458-3.448-10.582-.727-3.122 2.722-3.448 7.459-.727 10.582 11.705 13.43 32.544 13.418 44.237 0z"/></g></svg>