<svg width="1651" height="1213" viewBox="0 0 1651 1213" fill="none" xmlns="http://www.w3.org/2000/svg">
<g opacity="0.05">
<path d="M137.103 885.5C169.757 942.719 284.603 1178.5 504.103 1079.5C1214.85 758.934 1370.5 1213.37 1619.6 1211.5" stroke="#ED3237"/>
<path d="M137.103 869.5C169.757 926.719 284.603 1162.5 504.103 1063.5C1214.85 742.934 1370.5 1197.37 1619.6 1195.5" stroke="#ED3237"/>
<path d="M137.103 853.5C169.757 910.719 284.603 1146.5 504.103 1047.5C1214.85 726.934 1370.5 1181.37 1619.6 1179.5" stroke="#ED3237"/>
<path d="M137.103 837.5C169.757 894.719 284.603 1130.5 504.103 1031.5C1214.85 710.934 1370.5 1165.37 1619.6 1163.5" stroke="#ED3237"/>
<path d="M137.103 821.5C169.757 878.719 284.603 1114.5 504.103 1015.5C1214.85 694.934 1370.5 1149.37 1619.6 1147.5" stroke="#ED3237"/>
<path d="M137.103 805.5C169.757 862.719 284.603 1098.5 504.103 999.5C1214.85 678.934 1370.5 1133.37 1619.6 1131.5" stroke="#ED3237"/>
<path d="M137.103 789.5C169.757 846.719 284.603 1082.5 504.103 983.5C1214.85 662.934 1370.5 1117.37 1619.6 1115.5" stroke="#ED3237"/>
<path d="M137.103 773.5C169.757 830.719 284.603 1066.5 504.103 967.5C1214.85 646.934 1370.5 1101.37 1619.6 1099.5" stroke="#ED3237"/>
<path d="M137.103 757.5C169.757 814.719 284.603 1050.5 504.103 951.5C1214.85 630.934 1370.5 1085.37 1619.6 1083.5" stroke="#ED3237"/>
<path d="M137.103 741.5C169.757 798.719 284.603 1034.5 504.103 935.5C1214.85 614.934 1370.5 1069.37 1619.6 1067.5" stroke="#ED3237"/>
<path d="M137.103 725.5C169.757 782.719 284.603 1018.5 504.103 919.5C1214.85 598.934 1370.5 1053.37 1619.6 1051.5" stroke="#ED3237"/>
<path d="M137.103 709.5C169.757 766.719 284.603 1002.5 504.103 903.5C1214.85 582.934 1370.5 1037.37 1619.6 1035.5" stroke="#ED3237"/>
<path d="M137.103 693.5C169.757 750.719 284.603 986.5 504.103 887.5C1214.85 566.934 1370.5 1021.37 1619.6 1019.5" stroke="#ED3237"/>
<path d="M137.103 677.5C169.757 734.719 284.603 970.5 504.103 871.5C1214.85 550.934 1370.5 1005.37 1619.6 1003.5" stroke="#ED3237"/>
<path d="M137.103 661.5C169.757 718.719 284.603 954.5 504.103 855.5C1214.85 534.934 1370.5 989.375 1619.6 987.5" stroke="#ED3237"/>
<path opacity="0.1" d="M775.452 986.823C786.697 929.367 821.286 693.193 966.279 784.393C1435.77 1079.7 1463.29 626.46 1611.98 620.9" stroke="#FFC804"/>
</g>
<g opacity="0.05">
<path d="M17.1029 265.5C49.7573 322.719 164.603 558.5 384.103 459.5C1094.85 138.934 1250.5 593.375 1499.6 591.5" stroke="#ED3237"/>
<path d="M17.1028 249.5C49.7572 306.719 164.603 542.5 384.103 443.5C1094.85 122.934 1250.5 577.375 1499.6 575.5" stroke="#ED3237"/>
<path d="M17.1028 233.5C49.7572 290.719 164.603 526.5 384.103 427.5C1094.85 106.934 1250.5 561.375 1499.6 559.5" stroke="#ED3237"/>
<path d="M17.1028 217.5C49.7572 274.719 164.603 510.5 384.103 411.5C1094.85 90.9341 1250.5 545.375 1499.6 543.5" stroke="#ED3237"/>
<path d="M17.1028 201.5C49.7572 258.719 164.603 494.5 384.103 395.5C1094.85 74.9341 1250.5 529.375 1499.6 527.5" stroke="#ED3237"/>
<path d="M17.1028 185.5C49.7572 242.719 164.603 478.5 384.103 379.5C1094.85 58.9341 1250.5 513.375 1499.6 511.5" stroke="#ED3237"/>
<path d="M17.1028 169.5C49.7572 226.719 164.603 462.5 384.103 363.5C1094.85 42.9341 1250.5 497.375 1499.6 495.5" stroke="#ED3237"/>
<path d="M17.1028 153.5C49.7572 210.719 164.603 446.5 384.103 347.5C1094.85 26.9341 1250.5 481.375 1499.6 479.5" stroke="#ED3237"/>
<path d="M17.1028 137.5C49.7572 194.719 164.603 430.5 384.103 331.5C1094.85 10.9341 1250.5 465.375 1499.6 463.5" stroke="#ED3237"/>
<path d="M17.1028 121.5C49.7572 178.719 164.603 414.5 384.103 315.5C1094.85 -5.06588 1250.5 449.375 1499.6 447.5" stroke="#ED3237"/>
<path d="M17.1028 105.5C49.7572 162.719 164.603 398.5 384.103 299.5C1094.85 -21.0659 1250.5 433.375 1499.6 431.5" stroke="#ED3237"/>
<path d="M17.1028 89.5C49.7572 146.719 164.603 382.5 384.103 283.5C1094.85 -37.0659 1250.5 417.375 1499.6 415.5" stroke="#ED3237"/>
<path d="M17.1028 73.5C49.7572 130.719 164.603 366.5 384.103 267.5C1094.85 -53.0659 1250.5 401.375 1499.6 399.5" stroke="#ED3237"/>
<path d="M17.1028 57.5C49.7572 114.719 164.603 350.5 384.103 251.5C1094.85 -69.0659 1250.5 385.375 1499.6 383.5" stroke="#ED3237"/>
<path d="M17.1028 41.5C49.7572 98.7186 164.603 334.5 384.103 235.5C1094.85 -85.0659 1250.5 369.375 1499.6 367.5" stroke="#ED3237"/>
<path opacity="0.1" d="M655.452 366.823C666.697 309.367 701.286 73.1932 846.279 164.393C1315.77 459.701 1343.29 6.46014 1491.98 0.899796" stroke="#FFC804"/>
</g>
</svg>
