<svg width="58" height="58" viewBox="0 0 58 58" fill="none" xmlns="http://www.w3.org/2000/svg">
<path fill-rule="evenodd" clip-rule="evenodd" d="M33.7964 47.1921C33.6245 47.1215 33.432 47.0414 33.2147 46.9483C31.8942 46.3867 31.1338 45.0707 31.3048 43.6458C31.445 42.4683 31.5619 41.9947 31.4835 41.5488C31.4052 41.1032 31.1338 40.6985 30.599 39.6407L30.5983 39.6395C29.9523 38.3571 30.2149 36.8615 31.2636 35.8824C32.1265 35.0708 32.5199 34.7827 32.7459 34.3905C32.972 33.9982 33.0239 33.5134 33.2938 32.3588L33.2939 32.358C33.6217 30.9617 34.7845 29.9873 36.2188 29.9065H36.2191C37.4023 29.8402 37.8887 29.8727 38.3141 29.7178C38.7396 29.5629 39.0916 29.2253 40.0413 28.5153C41.1909 27.6554 42.7063 27.6554 43.8558 28.5153C44.8056 29.2253 45.1575 29.5629 45.5831 29.7178C46.0085 29.8727 46.495 29.8402 47.6782 29.9065H47.6784C49.1131 29.9874 50.276 30.9622 50.6 32.3585C50.8711 33.5129 50.924 33.9977 51.1505 34.3899C51.3771 34.7824 51.7707 35.0707 52.6332 35.882C53.6782 36.8606 53.945 38.3569 53.2989 39.6395L53.2982 39.6407C52.7632 40.6988 52.491 41.1038 52.4122 41.5496C52.3335 41.9951 52.4506 42.4682 52.5922 43.6447C52.5923 43.6458 52.5925 43.6469 52.5926 43.648C52.7588 45.0727 52.0021 46.387 50.6824 46.9483C50.6712 46.9532 50.6598 46.958 50.6487 46.9628L52.946 52.3262C53.0793 52.6375 53.0288 52.997 52.8149 53.2594C52.601 53.5217 52.259 53.6436 51.9274 53.5759L48.8495 52.9462L47.1921 55.6145C47.0126 55.9032 46.6873 56.0679 46.3484 56.0414C46.0093 56.0149 45.7135 55.8017 45.5812 55.4886L43.5757 50.7432C42.7312 50.4784 42.3417 50.3291 41.9473 50.3291C41.7097 50.3291 41.4742 50.3834 41.1402 50.4843L38.2267 56.6819C38.0828 56.9882 37.7808 57.1891 37.4429 57.2038C37.1049 57.2186 36.7867 57.0445 36.6166 56.752L35.0386 54.0362L31.9445 54.5782C31.6108 54.6367 31.2722 54.5049 31.0658 54.2363C30.8595 53.9675 30.8196 53.6064 30.9622 53.2992L33.7964 47.1921ZM48.9829 47.6953C48.9083 47.7411 48.8409 47.789 48.7775 47.8423C48.4306 48.1334 48.2158 48.5716 47.568 49.5644L47.5672 49.5657C47.1008 50.2779 46.4058 50.7514 45.6301 50.93L46.5733 53.162L47.6382 51.4477C47.8392 51.1243 48.2203 50.9602 48.5934 51.0365L50.5888 51.4447L48.9829 47.6953ZM38.883 51.0088C37.865 50.9813 36.9174 50.4628 36.3299 49.5657L36.3297 49.5652C35.8516 48.8342 35.6088 48.4037 35.3758 48.1112C34.655 49.6644 33.3458 52.4855 33.3458 52.4855L35.3495 52.1345C35.7249 52.0686 36.1016 52.2439 36.2931 52.5735L37.3181 54.3375L38.883 51.0088ZM42.766 29.9724C42.2733 29.6039 41.6239 29.6039 41.1311 29.9724L41.131 29.9725C39.9428 30.8608 39.4689 31.2339 38.9365 31.4277C38.4042 31.6215 37.8016 31.6403 36.3211 31.7233C35.7059 31.758 35.2061 32.1746 35.0654 32.7735C34.728 34.218 34.6053 34.8083 34.3223 35.2991C34.0395 35.79 33.59 36.1922 32.5092 37.2088C32.5082 37.2097 32.5072 37.2108 32.5063 37.2117C32.0568 37.6306 31.9467 38.2715 32.2232 38.8206C32.8927 40.1444 33.1776 40.6759 33.2756 41.2338C33.3738 41.7915 33.287 42.3882 33.1116 43.861L33.1115 43.8619C33.0384 44.4713 33.363 45.0345 33.9278 45.2742L33.9309 45.2756C35.2948 45.8604 35.8547 46.0843 36.2885 46.4488C36.7222 46.8133 37.0397 47.3265 37.8523 48.569C38.1881 49.0818 38.7987 49.3055 39.3888 49.1265L39.3901 49.126C40.8087 48.6978 41.3809 48.5095 41.9473 48.5095C42.5135 48.5095 43.0866 48.6978 44.5067 49.1259C44.5075 49.1262 44.5083 49.1265 44.5092 49.1267C45.0969 49.3057 45.709 49.0816 46.0447 48.5692C46.8556 47.3264 47.1733 46.8131 47.6078 46.4486C48.042 46.0841 48.6026 45.8603 49.9663 45.2756C49.9673 45.2751 49.9684 45.2747 49.9694 45.2742C50.5347 45.0343 50.8561 44.47 50.7854 43.8599C50.6082 42.3876 50.5219 41.7908 50.6203 41.233C50.7189 40.6753 51.0047 40.1441 51.6739 38.8206C51.9507 38.2709 51.8373 37.6296 51.3895 37.2103L51.3879 37.2088C50.3075 36.1925 49.8579 35.7904 49.5746 35.2997C49.2913 34.809 49.1678 34.2185 48.8284 32.774C48.8281 32.773 48.8279 32.7719 48.8277 32.7709C48.6894 32.1732 48.19 31.7578 47.5761 31.7233C46.0955 31.6403 45.493 31.6215 44.9607 31.4277C44.4283 31.2339 43.9543 30.8608 42.7662 29.9725L42.766 29.9724ZM41.9468 46.7162C37.9406 46.7162 34.6714 43.4468 34.6714 39.4406C34.6714 35.4344 37.9406 32.165 41.9468 32.165C45.9569 32.165 49.2224 35.4344 49.2224 39.4406C49.2224 43.4468 45.9569 46.7162 41.9468 46.7162ZM41.9468 44.8965C44.9541 44.8965 47.4028 42.4449 47.4028 39.4406C47.4028 36.4363 44.9541 33.9846 41.9468 33.9846C38.9427 33.9846 36.491 36.4363 36.491 39.4406C36.491 42.4449 38.9427 44.8965 41.9468 44.8965ZM37.8667 40.2915C37.5113 39.9366 37.5109 39.3602 37.8657 39.0048C38.2204 38.6494 38.797 38.6489 39.1523 39.0037L40.5451 40.3942L44.7766 36.5576C45.1486 36.2203 45.7243 36.2485 46.0617 36.6205C46.399 36.9925 46.3708 37.5683 45.9988 37.9056L41.1261 42.3236C40.7668 42.6493 40.2153 42.636 39.8721 42.2935L37.8667 40.2915ZM43.135 26.2876C43.135 26.7897 42.7273 27.1975 42.2252 27.1975C41.723 27.1975 41.3154 26.7897 41.3154 26.2876V2.67153C41.3154 2.64127 41.2906 2.61648 41.2604 2.61648H6.23181C6.2003 2.61648 6.17312 2.64025 6.17312 2.67153V48.6435C6.17312 48.6758 6.19939 48.702 6.23181 48.702H31.1604C31.6625 48.702 32.0702 49.1097 32.0702 49.6118C32.0702 50.1139 31.6625 50.5216 31.1604 50.5216H6.23181C5.1952 50.5216 4.35352 49.68 4.35352 48.6435V2.67153C4.35352 1.64106 5.19429 0.796875 6.23181 0.796875H41.2604C42.2918 0.796875 43.135 1.64015 43.135 2.67153V26.2876ZM14.8726 25.0041C13.4844 23.3624 11.4295 21.2008 10.0045 18.9816C8.9652 17.363 8.26692 15.7031 8.26692 14.1732C8.26692 10.1425 11.5361 6.87334 15.5667 6.87334C19.5986 6.87334 22.8665 10.1425 22.8665 14.1732C22.8665 15.703 22.1684 17.363 21.1293 18.9815C19.7044 21.2008 17.6496 23.3625 16.2607 25.0044C16.0881 25.2085 15.8341 25.3263 15.5666 25.3263C15.2991 25.3262 15.0452 25.2084 14.8726 25.0041ZM15.5668 23.0265C16.8454 21.5661 18.4402 19.8046 19.5993 17.9992C20.4309 16.7041 21.0484 15.3974 21.0484 14.1732C21.0484 11.1463 18.5944 8.69147 15.5667 8.69147C12.5399 8.69147 10.0851 11.1463 10.0851 14.1732C10.0851 15.3974 10.7027 16.704 11.5344 17.9992C12.6937 19.8046 14.2887 21.5661 15.5668 23.0265ZM15.5663 18.1169C13.3092 18.1169 11.4689 16.2757 11.4689 14.0186C11.4689 11.7615 13.3091 9.9213 15.5663 9.9213C17.8234 9.9213 19.6645 11.7615 19.6645 14.0186C19.6645 16.2756 17.8233 18.1169 15.5663 18.1169ZM15.5663 16.2988C16.822 16.2988 17.8465 15.2744 17.8465 14.0186C17.8465 12.763 16.8219 11.7393 15.5663 11.7393C14.3106 11.7393 13.287 12.7631 13.287 14.0186C13.287 15.2742 14.3106 16.2988 15.5663 16.2988ZM24.9092 12.6939C24.407 12.6939 23.9994 12.2862 23.9994 11.7841C23.9994 11.282 24.407 10.8743 24.9092 10.8743H38.1359C38.638 10.8743 39.0457 11.282 39.0457 11.7841C39.0457 12.2862 38.638 12.6939 38.1359 12.6939H24.9092ZM25.4043 17.0096C24.9022 17.0096 24.4945 16.602 24.4945 16.0998C24.4945 15.5977 24.9022 15.19 25.4043 15.19H38.1359C38.638 15.19 39.0457 15.5977 39.0457 16.0998C39.0457 16.602 38.638 17.0096 38.1359 17.0096H25.4043ZM23.7443 21.3253C23.2421 21.3253 22.8345 20.9176 22.8345 20.4155C22.8345 19.9133 23.2421 19.5057 23.7443 19.5057H38.1359C38.638 19.5057 39.0457 19.9133 39.0457 20.4155C39.0457 20.9176 38.638 21.3253 38.1359 21.3253H23.7443ZM10.0268 29.5643C9.52461 29.5643 9.11702 29.1567 9.11702 28.6545C9.11702 28.1524 9.52461 27.7447 10.0268 27.7447H33.1037C33.6058 27.7447 34.0135 28.1524 34.0135 28.6545C34.0135 29.1567 33.6058 29.5643 33.1037 29.5643H10.0268ZM10.0268 33.8801C9.52461 33.8801 9.11702 33.4724 9.11702 32.9703C9.11702 32.4681 9.52461 32.0605 10.0268 32.0605H30.94C31.4422 32.0605 31.8498 32.4681 31.8498 32.9703C31.8498 33.4724 31.4422 33.8801 30.94 33.8801H10.0268ZM10.0268 38.1957C9.52461 38.1957 9.11702 37.788 9.11702 37.2859C9.11702 36.7838 9.52461 36.3761 10.0268 36.3761H28.3316C28.8338 36.3761 29.2414 36.7838 29.2414 37.2859C29.2414 37.788 28.8338 38.1957 28.3316 38.1957H10.0268ZM10.0268 42.5114C9.52461 42.5114 9.11702 42.1038 9.11702 41.6016C9.11702 41.0995 9.52461 40.6918 10.0268 40.6918H28.9852C29.4873 40.6918 29.895 41.0995 29.895 41.6016C29.895 42.1038 29.4873 42.5114 28.9852 42.5114H10.0268Z" fill="#121212"/>
</svg>
