<svg width="58" height="58" viewBox="0 0 58 58" fill="none" xmlns="http://www.w3.org/2000/svg">
<g clip-path="url(#clip0_1325_3224)">
<path d="M44.4415 9.61419C44.4667 9.61603 44.492 9.61786 44.5177 9.61786C44.5612 9.61786 44.6048 9.61419 44.6475 9.60823C45.7895 9.63163 46.7035 10.5631 46.7049 11.7051C46.7049 12.224 47.1257 12.6448 47.6446 12.6448C48.1635 12.6448 48.5843 12.224 48.5843 11.7051C48.582 9.83718 47.2817 8.22117 45.4573 7.81924V6.91625C45.4573 6.39731 45.0366 5.97656 44.5177 5.97656C43.9987 5.97656 43.578 6.39731 43.578 6.91625V7.86191C41.649 8.37764 40.401 10.2437 40.6612 12.2236C40.9213 14.2034 42.6089 15.6836 44.6057 15.6836C45.7652 15.6836 46.7049 16.6238 46.7049 17.7833C46.7049 18.9423 45.7652 19.8824 44.6057 19.8824C43.4463 19.8824 42.5066 18.9423 42.5066 17.7833C42.5066 17.2643 42.0858 16.8436 41.5669 16.8436C41.048 16.8436 40.6272 17.2643 40.6272 17.7833C40.6295 19.5837 41.839 21.1589 43.578 21.6264V22.6561C43.578 23.175 43.9987 23.5957 44.5177 23.5957C45.0366 23.5957 45.4573 23.175 45.4573 22.6561V21.6696C47.4418 21.2351 48.7802 19.3749 48.5613 17.3552C48.3429 15.3354 46.6375 13.8047 44.6057 13.8052C43.4784 13.8056 42.552 12.9155 42.5075 11.7891C42.4635 10.6626 43.3173 9.70229 44.4415 9.61465V9.61419Z" fill="#121212"/>
<path d="M44.6596 1.38477C38.8787 1.38477 33.9454 5.15683 32.0972 10.2077H8.77426C8.25762 10.2077 7.83824 10.6734 7.83457 11.1896L7.6125 44.154H0.964467C0.445527 44.154 0 44.5297 0 45.0496V49.2328C0.0119296 53.1709 3.11364 56.4062 7.04767 56.5842V56.6049H36.0606V56.5773C36.2955 56.586 36.3923 56.6049 36.541 56.6049H36.5612C40.6329 56.5984 43.9305 53.2957 43.9305 49.2241V28.0737C44.1654 28.0865 44.4141 28.0934 44.6573 28.0934C52.0138 28.0934 58.0001 22.0956 58.0001 14.7386C58.0001 7.38217 52.0165 1.38477 44.6596 1.38477ZM7.4051 54.7255H7.39914C4.35937 54.7213 1.89314 52.2634 1.87938 49.2231V46.0333H29.1304V49.2098C29.1318 51.1709 29.915 53.0507 31.3062 54.4332C31.4048 54.5318 31.5273 54.608 31.6306 54.7255H7.4051ZM42.0511 49.2231C42.0516 52.2579 39.5945 54.7195 36.5603 54.7255H36.5424C33.4957 54.72 31.0249 52.257 31.0098 49.2108V45.0496C31.0176 44.8092 30.9258 44.5765 30.7556 44.4068C30.5853 44.237 30.3527 44.1457 30.1127 44.154H9.49188L9.70753 12.087H31.5755C31.4089 12.9474 31.3227 13.821 31.3181 14.6969C31.3163 16.5492 31.7026 18.3809 32.4523 20.0744H23.5767C23.0573 20.0744 22.637 20.4952 22.637 21.0141C22.637 21.533 23.0573 21.9538 23.5767 21.9538H33.4719C35.4104 25.0023 38.5094 27.1276 42.0511 27.8388V49.2231ZM44.6596 26.2145C38.3295 26.2145 33.1975 21.0829 33.1979 14.7524C33.1979 8.42189 38.3295 3.2903 44.66 3.2903C50.9901 3.2903 56.1217 8.42235 56.1217 14.7524C56.1148 21.0797 50.9873 26.2076 44.6596 26.2145Z" fill="#121212"/>
<path d="M17.5448 26.3262C15.8861 26.3262 14.5371 27.6325 14.5371 29.2384C14.5371 30.8443 15.8861 32.1506 17.5448 32.1506C19.2034 32.1506 20.5529 30.8443 20.5529 29.2384C20.5529 27.6325 19.2034 26.3262 17.5448 26.3262ZM17.5448 30.2712C16.9221 30.2712 16.4165 29.8078 16.4165 29.2384C16.4165 28.6685 16.9226 28.2056 17.5448 28.2056C18.1669 28.2056 18.6735 28.669 18.6735 29.2384C18.6735 29.8078 18.1669 30.2712 17.5448 30.2712Z" fill="#121212"/>
<path d="M22.6387 29.2346C22.6387 29.7536 23.059 30.1743 23.5784 30.1743H36.1063C36.6253 30.1743 37.046 29.7536 37.046 29.2346C37.046 28.7157 36.6253 28.2949 36.1063 28.2949H23.5784C23.059 28.2949 22.6387 28.7157 22.6387 29.2346Z" fill="#121212"/>
<path d="M17.5448 18.1582C15.8861 18.1582 14.5371 19.465 14.5371 21.0709C14.5371 22.6768 15.8861 23.9831 17.5448 23.9831C19.2034 23.9831 20.5529 22.6768 20.5529 21.0709C20.5529 19.465 19.2034 18.1582 17.5448 18.1582ZM17.5448 22.1037C16.9221 22.1037 16.4165 21.6403 16.4165 21.0709C16.4165 20.5015 16.9226 20.0376 17.5448 20.0376C18.1669 20.0376 18.6735 20.501 18.6735 21.0709C18.6735 21.6403 18.1669 22.1042 17.5448 22.1042V22.1037Z" fill="#121212"/>
<path d="M17.5448 34.4961C15.8861 34.4961 14.5371 35.8024 14.5371 37.4083C14.5371 39.0142 15.8861 40.3205 17.5448 40.3205C19.2034 40.3205 20.5529 39.0142 20.5529 37.4083C20.5529 35.8024 19.2034 34.4961 17.5448 34.4961ZM17.5448 38.4411C16.9221 38.4411 16.4165 37.9782 16.4165 37.4083C16.4165 36.8389 16.9226 36.3755 17.5448 36.3755C18.1669 36.3755 18.6735 36.8389 18.6735 37.4083C18.6735 37.9777 18.1669 38.4411 17.5448 38.4411Z" fill="#121212"/>
<path d="M36.1063 36.5176H23.5784C23.059 36.5176 22.6387 36.9383 22.6387 37.4573C22.6387 37.9762 23.059 38.397 23.5784 38.397H36.1063C36.6253 38.397 37.046 37.9762 37.046 37.4573C37.046 36.9383 36.6253 36.5176 36.1063 36.5176Z" fill="#121212"/>
</g>
<defs>
<clipPath id="clip0_1325_3224">
<rect width="58" height="58" fill="white"/>
</clipPath>
</defs>
</svg>
