<svg width="225" height="290" viewBox="0 0 225 290" fill="none" xmlns="http://www.w3.org/2000/svg">
<g clip-path="url(#clip0_55_5)">
<path d="M29.5 29.4999C11.1 29.4999 2.16667 12.4999 7.62939e-06 3.9999C-6.83333 0.833267 -20.8 -5.7 -22 -6.5C-23.5 -7.5 -39.5 -21.5001 -47 -25.0001C-54.5 -28.5001 -57.5 -13.0001 -69.0002 15.9999C-80.5003 44.9999 -57 116.5 -57.5 119C-58 121.5 -51 167.5 -51 181.5C-51 195.5 -19 243 -6.99999 261.5C5.00001 280 77.5 288 90.5 282.5C103.5 277 114 258 149.5 252C185 246 244 212 216 179C188 146 190.5 132 193 109C195.5 85.9999 200 66.4999 188 51.9999C176 37.4999 145 29.4999 126 18.9999C107 8.4999 52.5 29.4999 29.5 29.4999Z" stroke="#30762D"/>
<path d="M18.9999 34.5C12.5999 22.9 2.99987 13.3333 -1.00013 9.99999C-11.1668 9.16666 -31.8 7.59999 -33 7.99999C-34.5 8.49999 -38.5001 32 -44.5001 58.5C-49.3001 79.7 -39.8335 139.333 -34.5001 166.5L-31.0001 210.5C-23.5001 223.667 -6.70013 252.6 0.49987 263C9.49987 276 71.9999 312.5 112 269C152 225.5 192 245 202 200C212 155 164.5 160.5 178 120C191.5 79.5 178.5 56.5 156 48.5C133.5 40.5 132.5 30.5 108.5 34.5C84.4999 38.5 26.9999 49 18.9999 34.5Z" fill="#30762D"/>
</g>
<defs>
<clipPath id="clip0_55_5">
<rect width="225" height="290" fill="white"/>
</clipPath>
</defs>
</svg>
